<svg width="155" height="120" viewBox="0 0 155 120" fill="none" xmlns="http://www.w3.org/2000/svg">
<path fill-rule="evenodd" clip-rule="evenodd" d="M7.74818 15.7833H147.215C151.492 15.7833 154.964 12.248 154.964 7.89165C154.964 3.53525 151.492 0 147.215 0H7.74818C3.47123 0.000257894 0 3.53551 0 7.8919C0 12.248 3.47123 15.7833 7.74818 15.7833ZM82.3384 103.309H7.74818C3.47123 103.309 0 106.845 0 111.201C0 115.557 3.47123 119.093 7.74818 119.093H82.3384C86.6153 119.093 90.0866 115.557 90.0866 111.201C90.0866 106.845 86.6153 103.309 82.3384 103.309ZM7.74818 51.6544H147.215C151.492 51.6544 154.964 55.1901 154.964 59.5463C154.964 63.9024 151.492 67.4379 147.215 67.4379H7.74818C3.47123 67.4379 0 63.9027 0 59.5463C0 55.1899 3.47123 51.6544 7.74818 51.6544Z" fill="#08233D"/>
</svg>
