<svg width="128" height="134" viewBox="0 0 128 134" fill="none" xmlns="http://www.w3.org/2000/svg">
<path d="M45.2975 124.496V104.32C45.2974 99.1884 49.481 95.0186 54.6646 94.9842H73.6519C78.8602 94.9842 83.0823 99.164 83.0823 104.32V104.32V124.559C83.0811 128.916 86.5938 132.477 90.9937 132.579H103.652C116.271 132.579 126.5 122.452 126.5 109.959V109.959V52.5647C126.433 47.6502 124.102 43.0352 120.171 40.0331L76.8798 5.50856C69.2956 -0.502854 58.5145 -0.502854 50.9304 5.50856L7.82911 40.0958C3.88328 43.0857 1.5486 47.7083 1.5 52.6274V109.959C1.5 122.452 11.7294 132.579 24.3481 132.579H37.0063C41.5155 132.579 45.1709 128.96 45.1709 124.496V124.496" stroke="#3E5061" stroke-width="1.5" stroke-linecap="round" stroke-linejoin="round"/>
</svg>
