<svg width="125" height="125" viewBox="0 0 125 125" fill="none" xmlns="http://www.w3.org/2000/svg">
<circle cx="62.5" cy="62.5" r="62" stroke="#FF2020"/>
<circle cx="48.2147" cy="48.2144" r="13.7857" stroke="#FF2020"/>
<circle cx="50.3052" cy="50.3045" r="4.57317" fill="#FF2020"/>
<circle r="13.7857" transform="matrix(-1 0 0 1 76.7861 48.2144)" stroke="#FF2020"/>
<path d="M83.3334 71.4286L86.3096 77.381" stroke="#FF2020"/>
<path d="M39.5173 65.4762L34.5381 69.8916" stroke="#FF2020"/>
<path d="M89.2858 83.3333L92.262 89.2857" stroke="#FF2020"/>
<path d="M29.5592 74.307L24.5799 78.7224" stroke="#FF2020"/>
<circle r="4.57317" transform="matrix(-1 0 0 1 74.6955 48.7804)" fill="#FF2020"/>
<path d="M83.3334 107.143C83.3334 100.108 75.2137 89.2857 64.1026 89.2857C49.1454 89.2857 41.6667 101.732 41.6667 107.143" stroke="#FF2020"/>
<path d="M54.1156 68.5977C55.8941 70.6302 59.9083 74.8477 61.7376 75.4575C64.0241 76.2197 67.8351 72.4087 70.1217 68.5977" stroke="#FF2020"/>
</svg>
