<svg width="98" height="125" viewBox="0 0 98 125" fill="none" xmlns="http://www.w3.org/2000/svg">
<path d="M86.3333 27.6666C89.0182 27.5357 91.646 28.4713 93.6441 30.2695C95.6421 32.0678 96.8484 34.5828 97 37.2666V114.067C96.8484 116.75 95.6421 119.266 93.6441 121.064C91.646 122.862 89.0182 123.798 86.3333 123.667H11.6667C8.98178 123.798 6.35396 122.862 4.35593 121.064C2.3579 119.266 1.15162 116.75 1 114.067V37.2666C1.15162 34.5828 2.3579 32.0678 4.35593 30.2695C6.35396 28.4713 8.98178 27.5357 11.6667 27.6666H86.3333Z" stroke="#3E5061" stroke-width="1.5" stroke-linecap="round" stroke-linejoin="round"/>
<path d="M1 102.333H97" stroke="#3E5061" stroke-width="1.5" stroke-linecap="round" stroke-linejoin="round"/>
<path d="M1 49H97" stroke="#3E5061" stroke-width="1.5" stroke-linecap="round" stroke-linejoin="round"/>
<path d="M17 22.3333V6.33333C17 4.91885 17.5619 3.56229 18.5621 2.5621C19.5623 1.5619 20.9188 1 22.3333 1H75.6667C77.0812 1 78.4377 1.5619 79.4379 2.5621C80.4381 3.56229 81 4.91885 81 6.33333V22.3333" stroke="#3E5061" stroke-width="1.5" stroke-linecap="round" stroke-linejoin="round"/>
<path d="M49 65V86.3333" stroke="#3E5061" stroke-width="1.5" stroke-linecap="round" stroke-linejoin="round"/>
<path d="M38.3334 75.6667H59.6667" stroke="#3E5061" stroke-width="1.5" stroke-linecap="round" stroke-linejoin="round"/>
</svg>
