<svg width="112" height="112" viewBox="0 0 112 112" fill="none" xmlns="http://www.w3.org/2000/svg">
<path fill-rule="evenodd" clip-rule="evenodd" d="M78.5557 47.3772C79.1857 49.8763 77.6703 52.4129 75.1712 53.0429C72.672 53.6728 70.1354 52.1575 69.5055 49.6583C67.9737 43.5809 63.0315 38.8716 56.8749 37.6474C54.3471 37.1447 52.7053 34.688 53.208 32.1601C53.7107 29.6323 56.1674 27.9906 58.6952 28.4933C68.3908 30.4213 76.1441 37.8091 78.5557 47.3772ZM101.218 94.2667L87.0135 80.1193C93.3017 72.4137 96.7328 62.7859 96.7297 52.8561C96.7297 28.8842 77.1494 9.33331 53.0315 9.33331C28.9137 9.33331 9.33337 28.8351 9.33337 52.8561C9.33337 76.8772 28.9137 96.3789 53.0315 96.3789C63.1916 96.3789 72.5625 92.8912 80.01 87.0456L94.2636 101.242C95.2501 102.225 96.4831 102.667 97.7654 102.667C99.0477 102.667 100.281 102.175 101.267 101.242C103.141 99.3263 103.141 96.1824 101.218 94.2667ZM19.1976 52.8562C19.1976 34.2878 34.3884 19.158 53.0316 19.158C71.6748 19.158 86.8656 34.2878 86.8656 52.8562C86.8656 71.4247 71.6748 86.5545 53.0316 86.5545C34.3884 86.5545 19.1976 71.4247 19.1976 52.8562Z" fill="#3E5061"/>
</svg>
